<svg xmlns="http://www.w3.org/2000/svg" viewBox="0 0 515.79 72.51"><g id="Text"><path d="M6989.53,7166.48a18.31,18.31,0,0,1,10.36,2.88,19.13,19.13,0,0,1,6.48,7l-9.28,3.17c-1.25-2.6-3.63-3.89-7.13-3.89a7.8,7.8,0,0,0-4.36,1.15,3.41,3.41,0,0,0-1.76,2.95,4.76,4.76,0,0,0,1.26,3.28,11.18,11.18,0,0,0,4.79,2.55l1.94.65q8.43,2.88,12.13,7.06a14.18,14.18,0,0,1,3.71,9.72,12.54,12.54,0,0,1-3,8.42,16.87,16.87,0,0,1-7.06,5,24,24,0,0,1-8.28,1.47,21.34,21.34,0,0,1-11.84-3.17,17,17,0,0,1-6.95-8.64l8.71-3.88a9.94,9.94,0,0,0,3.82,4.68,10.79,10.79,0,0,0,6.26,1.87,10,10,0,0,0,5.36-1.44A4.74,4.74,0,0,0,6997,7203a5.28,5.28,0,0,0-1.69-4.21,21.11,21.11,0,0,0-6.37-3.14l-1.87-.72a26.87,26.87,0,0,1-10.23-5.86,12.56,12.56,0,0,1-3.6-9.33,11.54,11.54,0,0,1,4.83-9.5A18.09,18.09,0,0,1,6989.53,7166.48Z" transform="translate(-6913.8 -7157.3)" fill="#fff"/><path d="M7049.5,7167v9.36h-12.31v41H7026v-41h-12.39V7167Z" transform="translate(-6913.8 -7157.3)" fill="#fff"/><path d="M7077.94,7166.48a24.85,24.85,0,0,1,17.64,7.35,25.72,25.72,0,0,1,0,36.72,24.84,24.84,0,0,1-17.64,7.34,24.56,24.56,0,0,1-12.06-3.2,26.2,26.2,0,0,1-9.57-9.22,25.18,25.18,0,0,1,0-26.57,26.25,26.25,0,0,1,9.57-9.21A24.57,24.57,0,0,1,7077.94,7166.48Zm.07,10.3a12.89,12.89,0,0,0-9.72,4.28,17.37,17.37,0,0,0,0,22.25,12.87,12.87,0,0,0,9.72,4.29,12.68,12.68,0,0,0,9.83-4.25q3.85-4.24,3.85-11.16t-3.85-11.16A12.68,12.68,0,0,0,7078,7176.78Z" transform="translate(-6913.8 -7157.3)" fill="#fff"/><path d="M7150.3,7217.39h-11.59L7127.19,7199h-4.32v18.36h-10.59V7167h17.57q8.71,0,13.68,4.5a14.82,14.82,0,0,1,5,11.48,14.95,14.95,0,0,1-10.87,14.83Zm-27.43-41v13.25h6.69a9.87,9.87,0,0,0,6.12-1.7,6.55,6.55,0,0,0,0-9.86,9.87,9.87,0,0,0-6.12-1.69Z" transform="translate(-6913.8 -7157.3)" fill="#fff"/><path d="M7210.63,7167v50.4H7200V7191l-11.16,26.35h-8.93l-11.09-26.21v26.21h-10.58V7167h10.15l16.06,35.57,16-35.57Z" transform="translate(-6913.8 -7157.3)" fill="#fff"/><path d="M7236.41,7166.48a18,18,0,0,1,10.37,3,16.82,16.82,0,0,1,6.26,7.45l-3.09,1.23a13.86,13.86,0,0,0-5.08-6,14.72,14.72,0,0,0-8.46-2.38,13.5,13.5,0,0,0-8.57,2.6,8.16,8.16,0,0,0-3.31,6.76,7.48,7.48,0,0,0,2.16,5.76,18.29,18.29,0,0,0,6.55,3.53l6.63,2.31a30.84,30.84,0,0,1,10.22,5.32,10.8,10.8,0,0,1,3.6,8.64,11.34,11.34,0,0,1-5.07,9.54,19.63,19.63,0,0,1-11.92,3.71,20.24,20.24,0,0,1-11.38-3.31,16.2,16.2,0,0,1-6.77-8.5l3.1-1.29a14.46,14.46,0,0,0,5.58,7.13,16.39,16.39,0,0,0,9.47,2.73,16.19,16.19,0,0,0,9.47-2.73,8.48,8.48,0,0,0,3.92-7.28,9.18,9.18,0,0,0-.86-4.06,8.32,8.32,0,0,0-2.56-3,18.28,18.28,0,0,0-3.27-2c-1.06-.48-2.41-1-4-1.58l-6.91-2.38a22.34,22.34,0,0,1-8.6-4.82,10.33,10.33,0,0,1-2.92-7.71,11.12,11.12,0,0,1,4.47-9A17,17,0,0,1,7236.41,7166.48Z" transform="translate(-6913.8 -7157.3)" fill="#fff"/><path d="M7284.65,7166.48a22.89,22.89,0,0,1,16,6.27l-2.3,2.59a18.54,18.54,0,0,0-13.68-5.4q-8.2,0-14.8,6.41a22.36,22.36,0,0,0,0,31.68q6.6,6.41,14.8,6.41a18.54,18.54,0,0,0,13.68-5.4l2.3,2.59a22.92,22.92,0,0,1-16,6.26,24.31,24.31,0,0,1-12.06-3.2,26,26,0,0,1-9.43-9.18,25.77,25.77,0,0,1,0-26.64,26,26,0,0,1,9.43-9.18A24.32,24.32,0,0,1,7284.65,7166.48Z" transform="translate(-6913.8 -7157.3)" fill="#fff"/><path d="M7347.43,7217.39l-7.27-16.56h-24.05l-7.27,16.56H7305l22.61-50.4h1.15l22.61,50.4Zm-29.88-19.8h21.17l-10.58-24Z" transform="translate(-6913.8 -7157.3)" fill="#fff"/><path d="M7374.5,7167q7.5,0,12.24,4.28a15.22,15.22,0,0,1,0,22.11q-4.74,4.27-12.24,4.28h-12.67v19.73h-3.67V7167Zm-.64,27.43q6.48,0,10.22-3.28a12.27,12.27,0,0,0,0-17.64q-3.75-3.27-10.22-3.27h-12v24.19Z" transform="translate(-6913.8 -7157.3)" fill="#fff"/><path d="M7402.8,7214.08h26.78v3.31h-30.52V7167h29.8v3.31H7402.8v20.09h18.86v3.31H7402.8Z" transform="translate(-6913.8 -7157.3)" fill="#fff"/></g><g id="Lightning"><polyline points="35.26 0 0 43.15 19.94 43.06 10.16 72.51 45.29 30.86 25.3 31.28" fill="#ffb300"/></g></svg>